<?xml version="1.0" standalone="no"?>
<!DOCTYPE svg PUBLIC "-//W3C//DTD SVG 20010904//EN"
 "http://www.w3.org/TR/2001/REC-SVG-20010904/DTD/svg10.dtd">
<svg version="1.0" xmlns="http://www.w3.org/2000/svg"
 width="639.000000pt" height="727.000000pt" viewBox="0 0 639.000000 727.000000"
 preserveAspectRatio="xMidYMid meet">
<metadata>
</metadata>
<g transform="translate(0.000000,727.000000) scale(0.100000,-0.100000)"
fill="#000000" stroke="none">
<path d="M2980 7046 c-87 -20 -130 -36 -211 -78 -196 -101 -344 -282 -410
-502 l-26 -89 -71 -18 c-242 -61 -444 -227 -543 -445 -54 -119 -82 -300 -59
-393 14 -59 69 -116 122 -126 18 -3 644 -4 1390 -3 1352 3 1357 3 1384 24 58
43 69 68 72 167 13 346 -207 637 -580 767 l-81 29 -24 82 c-78 269 -269 467
-542 562 -77 27 -101 31 -226 33 -89 2 -160 -2 -195 -10z m324 -366 c132 -50
250 -163 295 -286 12 -31 26 -91 31 -133 15 -114 18 -125 52 -160 32 -33 62
-43 175 -60 196 -29 336 -115 404 -245 19 -36 31 -67 28 -70 -3 -4 -517 -5
-1143 -4 l-1137 3 36 71 c75 151 195 218 467 259 72 11 128 82 128 162 0 21 7
67 16 103 46 197 188 336 389 380 63 14 194 4 259 -20z"/>
<path d="M3095 6365 c-80 -29 -134 -118 -114 -190 37 -133 212 -169 295 -60
95 125 -34 303 -181 250z"/>
<path d="M340 3195 l0 -2755 2800 0 2800 0 0 2755 0 2755 -495 0 -495 0 0
-160 0 -160 340 0 340 0 0 -2430 0 -2430 -2485 0 -2485 0 0 2430 0 2430 300 0
300 0 0 160 0 160 -460 0 -460 0 0 -2755z"/>
<path d="M1659 4066 c-2 -2 -4 -76 -4 -163 l0 -158 1318 -3 1317 -2 0 165 0
165 -1313 0 c-723 0 -1316 -2 -1318 -4z"/>
<path d="M1659 3063 c0 -10 -1 -83 -2 -163 l-1 -145 987 -3 987 -2 0 165 0
165 -985 0 c-931 0 -985 -1 -986 -17z"/>
<path d="M1660 2088 c0 -2 -1 -76 -3 -166 l-2 -162 988 0 987 0 0 165 0 165
-985 0 c-542 0 -985 -1 -985 -2z"/>
</g>
</svg>
